<?xml version="1.0" encoding="utf-8"?>
<!-- Generator: Adobe Illustrator 27.3.1, SVG Export Plug-In . SVG Version: 6.00 Build 0)  -->
<svg version="1.1" id="Camada_1" xmlns="http://www.w3.org/2000/svg" xmlns:xlink="http://www.w3.org/1999/xlink" x="0px" y="0px"
	 viewBox="0 0 616 521" style="enable-background:new 0 0 616 521;" xml:space="preserve">
<style type="text/css">
	.st0{fill:#FFFFFF;}
</style>
<path d="M536,518H42c-6.6,0-12-5.4-12-12V12c0-6.6,5.4-12,12-12h494c6.6,0,12,5.4,12,12v494C548,512.6,542.6,518,536,518z"/>
<g>
	<path class="st0" d="M464.1,359.8c-7.4,22.5-17.7,43.5-31.1,62.7c-8.9,12.8-17.7,25.6-29.5,36.1c-17.5,15.5-37.3,18.8-58.8,10.7
		c-9.1-3.3-17.9-7.6-27.2-10.3c-17.3-4.9-34.6-3.1-51.3,3.3c-7.2,2.9-14.2,6-21.6,8.4c-19.6,6.8-37.1,2.7-52.4-11.1
		c-17.3-15.7-30.7-34.6-42.1-54.6c-23.5-40.8-36.7-84.9-36.1-132.2c0.4-29.1,7.2-56.7,24.9-80.6c20-26.8,46.6-41.6,80.2-43.5
		c11.1-0.6,21.9,1.9,32.2,5.8c8.9,3.1,17.7,6.4,26.6,9.9c9.3,3.5,18.3,3.7,27.6,0c11.3-4.5,22.5-9.3,34.4-12.4
		c40.2-10.9,75.3-2.1,104.9,27.6c2.1,2.1,4.1,4.9,6,7.4c0.8,1,1.4,1.9,2.1,3.1c-30.9,21.4-48.5,49.9-45.8,88.4
		C409.3,316.9,429.9,342.9,464.1,359.8z"/>
	<path class="st0" d="M288.7,142.7c-8.7-42.3,40.6-99.4,86-98.6c1.9,24.5-5.4,45.8-19.8,65.1C338.2,131.3,310.1,145.4,288.7,142.7z"
		/>
</g>
</svg>
