<?xml version="1.0" encoding="utf-8"?>
<!-- Generator: Adobe Illustrator 27.3.1, SVG Export Plug-In . SVG Version: 6.00 Build 0)  -->
<svg version="1.1" id="Camada_1" xmlns="http://www.w3.org/2000/svg" xmlns:xlink="http://www.w3.org/1999/xlink" x="0px" y="0px"
	 viewBox="0 0 640 247.6" style="enable-background:new 0 0 640 247.6;" xml:space="preserve">
<style type="text/css">
	.st0{fill:#FFFFFF;}
	.st1{fill:#D61D28;}
</style>
<path class="st0" d="M0,73.1c0.6-0.9,0.3-2.1,0.4-3.1C0.9,66.6,1.9,63.3,3,60c0.8-2.3,2.1-4.5,3.2-6.7c0.9-1.8,2.3-3.3,3.7-4.7
	c1.5-1.5,3-3.1,4.8-4.4c1.3-1,2.6-1.8,4-2.6c2.2-1.2,4.4-2.3,6.9-2.9c3.1-0.8,6.1-1.3,9.3-1.3c2.3,0,4.7,0.4,6.7,1.1
	c3.1,1.1,6.2,2.5,9.2,3.6c3.3,1.2,6.9,1.9,10.5,0.1c3.5-1.8,7.3-3,11.1-4c4.3-1.2,8.7-1.6,13.2-0.7c2.5,0.5,5,1,7.4,1.8
	c2.5,0.8,4.7,2.1,6.9,3.5c2.9,1.8,5.1,4.3,7.1,6.9c0.6,0.7,0.5,1-0.3,1.5c-2.3,1.6-4.4,3.5-6.3,5.6c-3.1,3.5-5.3,7.5-6.5,12
	c-0.8,2.7-1.3,5.5-1.1,8.2c0.7,12.2,6.5,21.2,17.4,26.8c0.8,0.4,0.9,0.6,0.6,1.6c-2.2,6.7-5.3,12.8-9.3,18.6c-2.1,3-4.3,6-6.6,8.8
	c-2.7,3.3-6,5.6-9.9,7.1c-1.3,0.5-2.7,0.5-4.1,0.6c-3.7,0.2-7.1-0.9-10.5-2.4c-3.5-1.5-7.1-2.7-11-2.9c-5.3-0.3-10.1,1.1-14.7,3.3
	c-2.8,1.3-5.8,2.1-8.8,2.3c-3.4,0.1-6.4-1.2-9.2-3.2c-3.1-2.3-5.7-5.1-8-8.1c-2.7-3.5-5.2-7.2-7.5-11c-1.5-2.5-2.6-5.3-3.9-7.9
	c-1.7-3.4-2.8-7.1-4-10.7c-0.7-2.2-1.3-4.6-1.8-6.9c-0.6-3-1.1-6-1.3-9.1c0-0.3,0.1-0.7-0.3-0.9C0,79.8,0,76.5,0,73.1z"/>
<path class="st0" d="M228.2,110.5c0.2-1.7,0.9-3,0.7-4.6c0-0.5,0.6-1.4,0.8-2.1c0.9-3.9,2-7.7,2.6-11.7c0.2-1.1,0.6-2.1,0.8-3.1
	c1-4.2,2.2-8.4,3-12.6c0.7-3.5,1.8-7,2.5-10.5c0.9-4.6,2.1-9.2,3.2-13.8c1-4,1.9-8.1,2.8-12.2c0.2-0.9,0.6-1.1,1.5-1.1
	c6.6,0,13.2,0,19.9,0c1,0,1.2,0.1,0.9,1.2c-0.9,3.2-1.8,6.5-2.7,9.7c-0.8,2.9-1.7,5.8-2.5,8.7c-0.5,1.6-1,3.2-1.3,4.9
	c-0.2,1.3-0.9,2.6-1.2,3.9c-0.3,1.4-0.8,2.8-1.2,4.2c-1.4,5.2-2.9,10.3-4.3,15.5c-0.4,1.5-1,2.9-1.3,4.4c-0.8,3.7-2.2,7.3-3,11
	c-0.5,2.3-1,4.6-1.7,6.9c-2,6.1-3.6,12.4-5.3,18.6c-0.5,1.8-1,3.6-1.5,5.5c-0.4,1.7-0.8,3.5-1.5,5.2c-0.2,0.4-0.3,0.7-0.8,0.7
	c-6.6,0-13.2,0-19.9,0c-0.7,0-0.7-0.5-0.8-0.8c-0.7-2.4-1.3-4.8-2-7.2c-1.2-4.5-2.4-9.1-3.6-13.6c-0.7-2.8-1.5-5.5-2.3-8.3
	c-0.8-3-1.6-5.9-2.4-8.9c-1-3.7-1.9-7.4-2.9-11c-1.3-4.6-2.6-9.2-3.8-13.7c-0.5-1.6-0.8-3.3-1.2-4.9c-0.4,0-0.6,0.1-0.7,0.5
	c-1,4.7-2.4,9.2-3.6,13.9c-1.2,4.7-2.4,9.3-3.7,13.9c-1.1,3.6-2,7.3-3,11c-0.8,2.6-1.4,5.2-2.1,7.8c-1.1,4.3-2.2,8.5-3.4,12.8
	c-0.7,2.5-1.2,5.1-2.1,7.6c-0.3,0.8-0.5,1.2-1.5,1.1c-6.2-0.1-12.5,0-18.7,0c-0.6,0-1.1-0.1-1.2-0.8c-0.6-2.2-1.2-4.4-1.8-6.7
	c-0.8-3-1.7-6-2.4-9c-0.8-3.2-1.8-6.4-2.7-9.6c-1.4-4.9-2.8-9.7-4.1-14.6c-1.3-4.8-2.7-9.5-4-14.2c-1.8-6.5-3.6-13-5.4-19.5
	c-1.8-6.3-3.6-12.5-5.4-18.8c-0.6-2.1-1.1-4.2-1.6-6.2c-0.2-0.7,0-0.8,0.7-0.8c6.8,0,13.7,0,20.5,0c0.5,0,0.7,0.1,0.9,0.7
	c1.4,6.2,3,12.4,4.4,18.6c1.3,5.9,2.8,11.8,4.1,17.8c1,4.8,2.2,9.5,3.3,14.3c1,4.5,2.1,8.9,3.1,13.4c0.5,2,0.9,4.1,1.3,6.2
	c0.1,0.3,0.1,0.5,0.4,0.5c0.2,0,0.3-0.3,0.4-0.6c0.6-2.3,1.2-4.7,1.7-7c1.5-5.9,2.9-11.7,4.4-17.6c0.9-3.7,1.7-7.4,2.6-11.1
	c2-7.9,3.9-15.7,5.9-23.6c0.9-3.5,1.7-6.9,2.6-10.4c0.2-0.8,0.4-1.1,1.3-1.1c6.3,0,12.7,0,19,0c0.9,0,1.2,0.1,1.5,1.1
	c1.8,7.7,3.7,15.4,5.7,23.1c2.1,7.9,4.1,15.9,6.1,23.9c1.1,4.4,2.1,8.8,3.2,13.2c0.7,3.1,1.5,6.2,2.3,9.3
	C227.6,109.7,227.8,109.9,228.2,110.5z"/>
<path class="st0" d="M557.2,88.8c0-16.2,0-32.5,0-48.7c0-1.1,0.3-1.3,1.4-1.3c6.1,0.1,12.2,0.1,18.2,0c1.1,0,1.3,0.3,1.3,1.3
	c0,12.5,0,25-0.1,37.5c0,1.1,0.3,1.4,1.4,1.4c12.7,0,25.5,0,38.2,0c1.1,0,1.3-0.3,1.3-1.3c0-12.5,0-25.1-0.1-37.6
	c0-1.1,0.3-1.3,1.4-1.3c6.2,0.1,12.3,0,18.5,0c0.8,0,1.2,0.1,1.2,1.1c0,32.7,0,65.4,0,98c0,0.8-0.1,1.1-1.1,1.1
	c-6.3,0-12.6-0.1-18.9,0c-1,0-1.1-0.4-1.1-1.2c0-13.4,0-26.7,0.1-40.1c0-1.3-0.4-1.5-1.5-1.4c-12.6,0-25.2,0.1-37.9,0
	c-1.4,0-1.6,0.4-1.6,1.7c0,13.2,0,26.5,0.1,39.7c0,1.1-0.2,1.4-1.3,1.4c-6.1-0.1-12.2-0.1-18.2,0c-1,0-1.3-0.3-1.3-1.3
	C557.2,121.4,557.2,105.1,557.2,88.8z"/>
<path class="st0" d="M269.9,138.6c1.5-4.6,3-9.3,4.5-13.9c2-6.3,4.1-12.5,6.1-18.8c1.9-5.8,3.7-11.5,5.6-17.3
	c1.6-4.9,3.1-9.8,4.7-14.6c1.3-4,2.7-8,4-12.1c1.5-5,3.2-9.9,4.7-14.8c0.8-2.4,1.6-4.8,2.4-7.3c0.3-1,0.8-1,1.6-1
	c6.1,0,12.2,0,18.2,0c0.7,0,1.5,0,2.2,0c1,0,2.3-0.4,3,0.1c0.6,0.5,0.6,1.8,0.9,2.8c0.9,3,1.7,6.1,2.9,9.1c0.8,2,1.2,4.1,1.9,6.1
	c1.8,5.2,3.4,10.5,5,15.7c1.8,5.6,3.6,11.2,5.4,16.8c2,6.2,3.9,12.4,5.9,18.6c1.7,5.4,3.4,10.8,5.2,16.1c1.2,3.7,2.3,7.4,3.6,11.1
	c0.4,1,0.5,2,0.9,3c0.4,0.9,0,0.9-0.7,0.9c-3.5,0-6.9,0-10.4,0c-3,0-6.1-0.1-9.1,0c-1.4,0.1-2.1-0.3-2.4-1.7c-1.5-6-3.2-12-4.8-18
	c-0.4-1.6-0.9-3.2-1.4-4.8c-0.2-0.6-0.5-0.8-1.1-0.8c-10,0-20,0-30,0c-0.7,0-1,0.1-1.2,0.9c-0.7,2.8-1.7,5.4-2.3,8.2
	c-0.5,2.2-1.2,4.4-1.8,6.6c-0.8,3-1.6,6-2.6,8.9c-0.2,0.6-0.6,0.6-1,0.6c-6.7,0-13.3,0-20,0C270.2,138.8,270.1,138.7,269.9,138.6z
	 M302.3,98.3c7.8,0,15.4,0,23.1,0c-0.5-1.8-0.9-3.5-1.4-5.2c-0.8-3-1.6-6-2.4-8.9c-0.9-2.9-1.7-5.9-2.6-8.8c-0.9-3-1.8-6-2.7-9.1
	c-0.7-2.3-1.3-4.5-2-6.8c-0.1-0.3,0.2-0.7-0.3-0.8c-0.4,0-0.4,0.4-0.5,0.7c-0.8,2.6-1.5,5.2-2.3,7.8c-1.2,4.4-2.4,8.7-3.7,13.1
	C305.8,86.3,304,92.3,302.3,98.3z"/>
<path class="st0" d="M525.1,104c3,0,6.1,0,9.1,0c0.6,0,1,0.1,1,0.8c-0.1,6.4-1.3,12.4-4.5,18c-1.4,2.4-3.1,4.4-5,6.4
	c-2.8,2.9-6.1,4.9-9.6,6.7c-3.5,1.8-7.3,2.8-11.1,3.5c-1,0.2-2,0.6-3.1,0.2c-0.4-0.1-1.4,0.3-2.2,0.4c-2.5,0.3-5.1,0.1-7.6,0.1
	c-3.7,0-7.4-0.7-10.9-1.8c-2.5-0.8-5-1.7-7.3-2.8c-2.1-1-3.9-2.3-5.7-3.8c-2.9-2.3-5.2-5-7.3-7.9c-1.2-1.7-2-3.7-2.9-5.6
	c-1.4-3-2.5-6.1-3.1-9.3c-0.4-1.8-0.7-3.7-0.9-5.5c-0.9-7.7-0.4-15.4-0.5-23.1c0-2.9,0.3-5.8,0.9-8.8c0.6-2.9,1.2-5.7,2.2-8.5
	c1.3-3.7,3.1-7.2,5.5-10.4c2.1-2.8,4.5-5.3,7.4-7.4c2.6-1.9,5.4-3.6,8.4-4.7c1.7-0.6,3.5-1.2,5.3-1.6c2.1-0.5,4.3-0.8,6.5-1.1
	c3.1-0.3,6.3-0.7,9.5-0.2c1.5,0.3,3.1,0.3,4.6,0.5c3,0.5,6,1,8.9,2.1c3.6,1.4,7.1,3.2,10.1,5.6c4.2,3.3,7.4,7.4,9.6,12.3
	c1.4,3.1,2.2,6.3,2.6,9.7c0.2,1.5,0.1,3,0.2,4.5c0.1,1.1-0.4,1.2-1.2,1.2c-4.5,0-9.1,0-13.6,0c-1.4,0-2.8-0.1-4.1,0
	c-0.9,0.1-1.1-0.2-1.1-1.1c0.1-3.4-0.8-6.6-2.7-9.6c-2.5-4-6.2-6.2-10.7-7.2c-2.4-0.6-4.9-0.9-7.4-0.8c-7.9,0.5-13.8,3.9-17,11.4
	c-1.3,3-2,6.1-2.4,9.3c-0.8,6.7-0.3,13.4-0.4,20.1c-0.1,4.7,0.5,9.4,2.1,13.9c2.1,5.9,6,10.1,12.2,11.9c2.8,0.8,5.8,0.9,8.7,0.8
	c2.6-0.1,5.2-0.7,7.6-1.5c1-0.3,2-0.9,2.8-1.7c0.6-0.5,1.5-0.7,2.1-1.2c2.2-2,3.5-4.4,4.3-7.2c0.5-1.9,0.8-3.9,0.7-5.9
	c0-0.8,0.3-0.9,0.9-0.9C519,104.1,522.1,104,525.1,104z"/>
<path class="st0" d="M410.5,97.4c0,13.4,0,26.8,0,40.2c0,1.2-0.3,1.4-1.5,1.4c-6-0.1-11.9-0.1-17.9,0c-1.2,0-1.4-0.4-1.4-1.5
	c0-26.8,0-53.5,0.1-80.3c0-1.3-0.3-1.6-1.6-1.5c-9,0.1-18.1,0-27.1,0.1c-1,0-1.3-0.3-1.3-1.3c0.1-4.9,0-9.7,0-14.6
	c0-0.8,0.1-1.1,1-1.1c26.2,0,52.3,0,78.5,0c0.8,0,1.1,0.1,1.1,1c0,5-0.1,10,0,15c0,1-0.4,1-1.1,1c-9.2,0-18.3,0-27.5,0
	c-1.1,0-1.4,0.2-1.4,1.3C410.6,70.5,410.5,84,410.5,97.4z"/>
<path class="st1" d="M306.4,242.4c-2.7,0-5.4,0-8.1,0c-0.6,0-0.9-0.2-1.1-0.7c-1.5-3.3-3.1-6.6-4.6-9.8c-1-2.1-2-4.1-2.9-6.2
	c-0.2-0.5-0.5-0.6-0.9-0.6c-2.5,0-4.9,0-7.4,0c-0.9,0-0.8,0.5-0.8,1.1c0,5,0,10,0,15c0,1-0.2,1.3-1.2,1.2c-1.8-0.1-3.7-0.1-5.5,0
	c-1,0.1-1.3-0.3-1.3-1.3c0-13.4,0-26.7,0-40.1c0-1.3-0.6-3.1,0.3-3.8c0.7-0.7,2.5-0.2,3.7-0.2c4.9,0,9.8-0.1,14.7,0.1
	c2.5,0.1,5,0.5,7.3,1.7c4.1,2,6.9,6.3,7,11c0.1,2.7,0,5.4-1.3,7.9c-1.3,2.6-3.2,4.6-5.9,5.9c-0.8,0.4-0.9,0.6-0.5,1.4
	c2.8,5.5,5.5,11,8.2,16.6C306.2,241.6,306.4,241.9,306.4,242.4z M280.5,211.1c0,2.2,0,4.5,0,6.7c0,0.8,0.2,1,1,1
	c2.8-0.1,5.6,0.1,8.4-0.1c6.8-0.4,8.1-4.7,7.2-9.8c-0.6-3.3-3.4-5.3-7-5.5c-2.9-0.1-5.8,0-8.7-0.1c-0.9,0-0.9,0.5-0.9,1.1
	C280.5,206.7,280.5,208.9,280.5,211.1z"/>
<path class="st1" d="M482.9,220.1c-1.1,2.4-2.9,4-5.1,5.3c-0.7,0.4-1.4,0.5-2.1,0.7c-6,2-13.1-0.6-16-5.3c-1.2-1.9-1.9-4-2.3-6.3
	c-0.8-4.6,0.4-8.6,2.8-12.4c1.8-2.8,4.6-4.3,7.7-5.2c5.2-1.4,10.2-1.1,14.9,1.8c2.6,1.6,4.1,4,5.4,6.6c1.6,3.1,1.8,6.4,2.2,9.8
	c0.4,3,0.3,6-0.1,8.9c-0.4,3.4-1.1,6.6-2.6,9.8c-1.5,3.1-3.7,5.4-6.3,7.3c-1.1,0.8-2.5,1.2-3.9,1.5c-3.7,0.9-7.3,0.8-10.9-0.5
	c-4.8-1.8-7.8-5.1-8.8-10.2c-0.2-1.3,0.3-1.1,1-1.1c1.9,0,3.7,0,5.6,0c0.8,0,1.2,0.2,1.3,0.9c0.7,3.4,5.1,5.5,8.6,4.8
	c3.2-0.6,5.1-2.5,6.4-5.5c1.1-2.5,1.8-5,1.9-7.8C482.8,222.3,483.1,221.2,482.9,220.1z M465.2,211.6c-0.1,6,4,8.8,7.9,8.8
	c7.3,0,10.6-6.3,8.1-13c-1.7-4.6-5.7-5.2-9.9-4.5C468.2,203.5,465,206.6,465.2,211.6z"/>
<path class="st1" d="M192.8,243.3c-4-0.1-6.7-0.2-9.4-1.3c-3.1-1.2-5.5-3-7.2-5.8c-1.1-1.8-1.5-3.9-1.9-6c-0.1-0.5,0.2-0.6,0.6-0.6
	c2.2,0,4.5,0,6.7,0c0.3,0,0.6-0.1,0.7,0.4c0.5,2.4,1.8,4.2,4,5.3c2.6,1.4,5.5,1.5,8.3,1.1c1.8-0.3,3.4-1,4.8-2.3
	c2.7-2.5,2.7-7.2-1.2-9.1c-2.6-1.3-5.5-1.7-8.2-2.5c-3.1-1-6.4-1.3-9.2-3.2c-1.7-1.2-3.3-2.6-4-4.3c-1-2.3-1.6-4.9-1.1-7.6
	c0.5-2.7,1.5-5,3.3-6.9c2.2-2.3,5.1-3.5,8.1-4.1c1.6-0.4,3.4-0.8,5-0.7c3.2,0.3,6.4,0.6,9.4,2.1c2.3,1.1,4.1,2.8,5.5,4.8
	c1.1,1.7,1.6,3.7,1.8,5.8c0.1,0.7-0.4,0.7-0.8,0.7c-2,0-3.9-0.1-5.9,0c-0.8,0-1.1-0.3-1.2-0.9c-0.5-3.3-4.3-5.5-7.3-5.7
	c-2-0.1-3.9-0.1-5.7,0.6c-3.1,1.2-4.9,3.8-3.9,7.3c0.3,1.2,1.1,2.1,2.1,2.6c2.1,1.2,4.5,1.6,6.8,2.2c4.8,1.3,10,1.8,13.7,5.8
	c1.5,1.6,2.4,3.4,2.6,5.5c0.3,3.6,0.2,7.1-2.1,10.2c-2.2,3-5.1,4.6-8.6,5.6C196.2,243.1,194,243.4,192.8,243.3z"/>
<path class="st1" d="M410.8,243.2c-4.1,0.5-7.7-0.9-11.2-2.7c-2.1-1.1-3.5-3.1-4.5-5.3c-0.6-1.4-1.5-2.9-1.4-4.6c0-0.7,0.3-1,1-1
	c2,0,4.1,0,6.1,0c0.5,0,0.8,0.1,0.9,0.7c0.7,3.2,2.8,4.8,5.9,5.7c2.2,0.7,4.4,0.9,6.5,0.3c1.3-0.4,2.7-0.8,4-1.5
	c1.9-1,2.6-4.8,2.2-6.4c-1-3.9-4.2-3.9-7-4.8c-3.6-1.2-7.5-1.5-11-3.2c-3.7-1.7-6.2-4.5-7.2-8.4c-0.2-0.9,0-2-0.1-3
	c-0.4-2.5,0.8-4.4,1.9-6.4c2.1-3.9,5.8-5.2,9.8-6.2c3.2-0.8,6.6-0.7,9.7-0.1c2.7,0.4,5.3,1.7,7.5,3.7c2.1,1.9,3.5,4.2,3.9,7.1
	c0.3,2.2,0.4,2.2-1.8,2.2c-1.6,0-3.2,0-4.7,0c-0.6,0-0.8-0.1-1-0.8c-0.8-3.6-3.4-5.4-6.9-5.8c-1.9-0.2-3.8-0.2-5.6,0.3
	c-2.8,0.8-4.7,3.2-4.8,5.7c-0.1,2.6,2.1,4.6,4.2,5.3c3.6,1.2,7.4,1.9,11.1,2.9c3.2,0.9,6.1,2.3,8.3,5c1.1,1.4,1.7,3,1.9,4.7
	c0.3,2.4,0.3,4.8-0.4,7.1c-0.7,2.4-2.1,4.1-3.9,5.6c-2.5,2.1-5.6,3-8.7,3.6C413.8,243.3,412.3,243.2,410.8,243.2z"/>
<path class="st1" d="M226.1,219.7c0-7.2,0-14.3,0-21.5c0-1,0.2-1.2,1.2-1.2c8.8,0,17.6,0,26.4,0c0.9,0,1.2,0.2,1.1,1.1
	c-0.1,1.5-0.1,3,0,4.5c0,0.9-0.2,1.2-1.2,1.2c-6,0-12.1,0-18.1-0.1c-1.1,0-1.4,0.2-1.4,1.4c0.1,3.3,0.1,6.7,0,10
	c0,1,0.3,1.2,1.2,1.2c5.7,0,11.3,0,17,0c1,0,1.3,0.2,1.2,1.2c-0.1,1.4-0.1,2.7,0,4.1c0,0.8-0.3,1-1,1c-5.7,0-11.4,0-17.1,0
	c-1.1,0-1.3,0.3-1.3,1.3c0.1,3.5,0.1,7,0,10.5c0,1.2,0.4,1.4,1.5,1.4c6,0,12,0,18,0c0.9,0,1.3,0.2,1.2,1.1c-0.1,1.6-0.1,3.2,0,4.7
	c0,0.6-0.2,0.9-0.8,0.9c-9,0-18,0-27,0c-1.1,0-0.8-0.7-0.8-1.2C226.1,234,226.1,226.8,226.1,219.7z"/>
<path class="st1" d="M350.5,219.7c0-7.2,0-14.3,0-21.5c0-1,0.3-1.2,1.2-1.2c8.7,0,17.5,0,26.2,0c1,0,1.3,0.2,1.2,1.2
	c-0.1,1.5-0.1,2.9,0,4.4c0.1,1-0.3,1.2-1.2,1.2c-6,0-12.1,0-18.1-0.1c-1.2,0-1.4,0.4-1.4,1.5c0.1,3.2,0.1,6.3,0,9.5
	c0,1.2,0.2,1.6,1.5,1.6c5.6-0.1,11.2,0,16.7-0.1c1,0,1.3,0.2,1.2,1.2c-0.1,1.3-0.1,2.7,0,4c0.1,1-0.3,1.1-1.2,1.1
	c-5.7,0-11.3,0-17,0c-1,0-1.4,0.2-1.3,1.3c0.1,3.5,0.1,7.1,0,10.6c0,1.2,0.4,1.3,1.4,1.3c6,0,12.1,0,18.1,0c0.9,0,1.3,0.2,1.2,1.2
	c-0.1,1.5,0,3.1,0,4.6c0,0.7-0.1,1-0.9,1c-9,0-18,0-27,0c-1,0-0.8-0.6-0.8-1.1C350.5,234.1,350.5,226.9,350.5,219.7z"/>
<path class="st0" d="M55.5,35.7c-0.4-2.1-0.2-4.2,0-6.3c0.3-2.6,1.2-5.1,2.3-7.4c1.2-2.8,2.9-5.3,4.9-7.6c1.9-2.3,4.2-4,6.6-5.6
	c3-2,6.3-3.3,9.8-4.1c0.7-0.1,1.4-0.3,2.1-0.5c1.1-0.2,1.5,0.1,1.6,1.4c0.3,3.9-0.4,7.6-1.7,11.2c-1.1,3.1-2.8,6-4.9,8.6
	c-1.6,2-3.3,3.9-5.3,5.3c-3.3,2.3-6.9,4.2-11,4.9C58.5,35.7,57,35.5,55.5,35.7z"/>
<path class="st1" d="M331.2,219.6c0,7.2,0,14.4,0,21.6c0,0.9-0.2,1.2-1.2,1.2c-1.9-0.1-3.7-0.1-5.6,0c-1,0-1.3-0.3-1.3-1.3
	c0-10.4,0-20.8,0-31.2c0-4,0-7.9,0-11.9c0-0.9,0.2-1.1,1.1-1.1c1.9,0.1,3.8,0.1,5.7,0c1,0,1.3,0.2,1.2,1.2
	C331.2,205.3,331.2,212.5,331.2,219.6z"/>
<path class="st0" d="M269.9,138.6c0.2,0.1,0.2,0.2,0.1,0.3C269.6,138.9,269.7,138.8,269.9,138.6z"/>
</svg>
