<?xml version="1.0" encoding="utf-8"?>
<!-- Generator: Adobe Illustrator 28.0.0, SVG Export Plug-In . SVG Version: 6.00 Build 0)  -->
<svg version="1.1" id="Camada_1" xmlns="http://www.w3.org/2000/svg" xmlns:xlink="http://www.w3.org/1999/xlink" x="0px" y="0px"
	 viewBox="0 0 340.8 340.8" style="enable-background:new 0 0 340.8 340.8;" xml:space="preserve">
<style type="text/css">
	.st0{clip-path:url(#SVGID_00000060010249558364927810000011732440061935521447_);}
	.st1{fill:#0D71B9;}
	.st2{fill:#E7267A;}
</style>
<g>
	<g>
		<g>
			<defs>
				<path id="SVGID_1_" d="M170.4,335.8C79.2,335.8,5,261.6,5,170.4S79.2,5,170.4,5s165.4,74.2,165.4,165.4S261.6,335.8,170.4,335.8
					z M170.4,25C90.2,25,25,90.2,25,170.4c0,80.2,65.2,145.4,145.4,145.4c80.2,0,145.4-65.2,145.4-145.4
					C315.8,90.2,250.5,25,170.4,25z"/>
			</defs>
			<clipPath id="SVGID_00000138552664438593347610000013327578099457953193_">
				<use xlink:href="#SVGID_1_"  style="overflow:visible;"/>
			</clipPath>
			<g style="clip-path:url(#SVGID_00000138552664438593347610000013327578099457953193_);">
				<g>
					<defs>
						<rect id="SVGID_00000087395692963503805060000005786894924047045026_" width="340.8" height="340.8"/>
					</defs>
					<clipPath id="SVGID_00000004545235642574755400000009873903967841783696_">
						<use xlink:href="#SVGID_00000087395692963503805060000005786894924047045026_"  style="overflow:visible;"/>
					</clipPath>
					<g style="clip-path:url(#SVGID_00000004545235642574755400000009873903967841783696_);">
						
							<image style="overflow:visible;" width="711" height="711" xlink:href="8590B962.jpg"  transform="matrix(0.48 0 0 0.48 -0.173 -0.3607)">
						</image>
					</g>
				</g>
			</g>
		</g>
	</g>
</g>
<path class="st1" d="M198,189.3c-31.2-13.9-44-46.8-28.2-77.1c24.9-47.8,103.9-30.4,104.7,25c0,0.7-0.4,1.1-1.1,1.1h-39.2
	c-0.8,0-1.3-0.4-1.6-1.1c-9.2-22.6-40.2-2.7-21.2,10.7c2.8,2,6,3.5,9.4,4.5c12.8,3.6,26.4,7.9,36.5,15.7
	c23.8,18.2,30.6,53.8,13.9,79.4c-15.7,24.1-46.5,33.5-73.4,24.2c-25.7-8.9-39.8-28.4-42.1-58.3c-0.1-0.9,0.4-1.4,1.3-1.4h40.4
	c0.7,0,1.1,0.4,1.2,1.1c1.4,13.5,8.6,20.1,21.6,19.7c15.4-0.5,24.5-19.4,11.2-30.2c-1.8-1.4-4.8-2.8-9.2-4.3
	C211.3,194.6,203.2,191.6,198,189.3z"/>
<path class="st2" d="M144.8,130.9v139.8c0,0.4-0.3,0.7-0.7,0.7c0,0,0,0,0,0h-40.6c-0.4,0-0.7-0.3-0.7-0.7l0,0V130.9
	c0-0.4-0.3-0.7-0.7-0.7H68.5c-0.4,0-0.7-0.3-0.7-0.7V88.9c0-0.4,0.3-0.7,0.7-0.7h111.2c0.4,0,0.7,0.3,0.7,0.7v40.6
	c0,0.4-0.3,0.7-0.7,0.7h-34.1C145.2,130.2,144.8,130.5,144.8,130.9z"/>
</svg>
