<?xml version="1.0" encoding="UTF-8" standalone="no"?>
<!DOCTYPE svg PUBLIC "-//W3C//DTD SVG 1.1//EN" "http://www.w3.org/Graphics/SVG/1.1/DTD/svg11.dtd">
<svg xmlns="http://www.w3.org/2000/svg" version="1.1" viewBox="0.00 0.00 500.00 250.00">
<path fill="#0071bc" d="
  M 216.44 128.33
  C 203.10 122.37 197.59 108.29 204.37 95.31
  C 215.05 74.85 248.86 82.29 249.20 106.02
  Q 249.21 106.50 248.73 106.50
  L 231.96 106.50
  Q 231.46 106.50 231.27 106.04
  C 227.33 96.35 214.05 104.87 222.21 110.63
  Q 224.03 111.92 226.24 112.54
  C 231.70 114.06 237.53 115.91 241.88 119.24
  C 252.08 127.03 255.00 142.26 247.83 153.23
  C 241.09 163.53 227.92 167.55 216.41 163.57
  Q 199.88 157.84 198.38 138.61
  Q 198.33 138.00 198.95 138.00
  L 216.24 138.00
  Q 216.70 138.00 216.74 138.45
  Q 217.64 147.14 225.99 146.87
  C 232.58 146.65 236.47 138.55 230.78 133.95
  Q 229.65 133.04 226.85 132.12
  Q 219.73 129.80 216.44 128.33
  Z"
/>
<path fill="#ed1e79" d="
  M 158.26 117.51
  L 171.66 84.44
  A 0.31 0.31 0.0 0 1 171.95 84.25
  L 191.12 84.26
  A 0.31 0.31 0.0 0 1 191.41 84.69
  L 159.40 163.31
  A 0.31 0.31 0.0 0 1 159.11 163.50
  L 139.92 163.50
  A 0.31 0.31 0.0 0 1 139.64 163.07
  L 148.51 141.41
  A 0.31 0.31 0.0 0 0 148.50 141.16
  L 121.84 84.69
  A 0.31 0.31 0.0 0 1 122.12 84.25
  L 141.71 84.25
  A 0.31 0.31 0.0 0 1 141.99 84.43
  L 157.70 117.52
  A 0.31 0.31 0.0 0 0 158.26 117.51
  Z"
/>
<path fill="#ed1e79" d="
  M 34.25 103.32
  L 34.25 163.18
  A 0.32 0.32 0.0 0 1 33.93 163.50
  L 16.57 163.50
  A 0.32 0.32 0.0 0 1 16.25 163.18
  L 16.25 103.32
  A 0.32 0.32 0.0 0 0 15.93 103.00
  L 1.57 103.00
  A 0.32 0.32 0.0 0 1 1.25 102.68
  L 1.25 85.32
  A 0.32 0.32 0.0 0 1 1.57 85.00
  L 49.18 85.00
  A 0.32 0.32 0.0 0 1 49.50 85.32
  L 49.50 102.68
  A 0.32 0.32 0.0 0 1 49.18 103.00
  L 34.57 103.00
  A 0.32 0.32 0.0 0 0 34.25 103.32
  Z"
/>
<path fill="#ed1e79" d="
  M 129.04 124.24
  A 39.40 39.40 0.0 0 1 89.64 163.64
  A 39.40 39.40 0.0 0 1 50.24 124.24
  A 39.40 39.40 0.0 0 1 89.64 84.84
  A 39.40 39.40 0.0 0 1 129.04 124.24
  Z
  M 110.74 124.23
  A 21.10 21.10 0.0 0 0 89.64 103.13
  A 21.10 21.10 0.0 0 0 68.54 124.23
  A 21.10 21.10 0.0 0 0 89.64 145.33
  A 21.10 21.10 0.0 0 0 110.74 124.23
  Z"
/>
<path fill="#0071bc" d="
  M 285.75 103.34
  L 285.75 163.16
  A 0.34 0.34 0.0 0 1 285.41 163.50
  L 267.84 163.50
  A 0.34 0.34 0.0 0 1 267.50 163.16
  L 267.50 103.34
  A 0.34 0.34 0.0 0 0 267.16 103.00
  L 252.84 103.00
  A 0.34 0.34 0.0 0 1 252.50 102.66
  L 252.50 85.34
  A 0.34 0.34 0.0 0 1 252.84 85.00
  L 300.41 85.00
  A 0.34 0.34 0.0 0 1 300.75 85.34
  L 300.75 102.66
  A 0.34 0.34 0.0 0 1 300.41 103.00
  L 286.09 103.00
  A 0.34 0.34 0.0 0 0 285.75 103.34
  Z"
/>
<path fill="#0071bc" d="
  M 380.43 124.23
  A 39.40 39.40 0.0 0 1 341.03 163.63
  A 39.40 39.40 0.0 0 1 301.63 124.23
  A 39.40 39.40 0.0 0 1 341.03 84.83
  A 39.40 39.40 0.0 0 1 380.43 124.23
  Z
  M 362.13 124.22
  A 21.09 21.09 0.0 0 0 341.04 103.13
  A 21.09 21.09 0.0 0 0 319.95 124.22
  A 21.09 21.09 0.0 0 0 341.04 145.31
  A 21.09 21.09 0.0 0 0 362.13 124.22
  Z"
/>
<path fill="#0071bc" d="
  M 462.84 145.25
  L 494.41 145.25
  A 0.34 0.34 0.0 0 1 494.75 145.59
  L 494.75 163.16
  A 0.34 0.34 0.0 0 1 494.41 163.50
  L 444.59 163.50
  A 0.34 0.34 0.0 0 1 444.25 163.16
  L 444.25 85.34
  A 0.34 0.34 0.0 0 1 444.59 85.00
  L 494.41 85.00
  A 0.34 0.34 0.0 0 1 494.75 85.34
  L 494.75 102.66
  A 0.34 0.34 0.0 0 1 494.41 103.00
  L 462.84 103.00
  A 0.34 0.34 0.0 0 0 462.50 103.34
  L 462.50 114.41
  A 0.34 0.34 0.0 0 0 462.84 114.75
  L 488.16 114.75
  A 0.34 0.34 0.0 0 1 488.50 115.09
  L 488.50 132.66
  A 0.34 0.34 0.0 0 1 488.16 133.00
  L 462.84 133.00
  A 0.34 0.34 0.0 0 0 462.50 133.34
  L 462.50 144.91
  A 0.34 0.34 0.0 0 0 462.84 145.25
  Z"
/>
<path fill="#0071bc" d="
  M 403.50 144.31
  L 403.50 163.00
  Q 403.50 163.50 403.00 163.50
  L 385.75 163.50
  Q 385.25 163.50 385.25 163.00
  L 385.25 85.76
  Q 385.25 85.25 385.76 85.25
  Q 390.53 85.22 402.22 85.35
  C 415.10 85.48 427.49 91.13 433.32 102.68
  C 438.91 113.74 435.95 127.09 426.50 135.26
  Q 426.07 135.63 426.37 136.10
  L 442.89 162.81
  A 0.45 0.45 0.0 0 1 442.51 163.50
  L 422.29 163.50
  A 0.96 0.93 73.7 0 1 421.49 163.05
  L 409.46 143.87
  A 0.84 0.81 71.1 0 0 408.70 143.48
  L 403.95 143.83
  Q 403.50 143.86 403.50 144.31
  Z
  M 403.43 104.03
  L 403.55 125.19
  A 0.22 0.22 0.0 0 0 403.77 125.41
  L 403.92 125.41
  A 13.83 10.79 -0.3 0 0 417.69 114.54
  L 417.69 114.52
  A 13.83 10.79 -0.3 0 0 403.80 103.81
  L 403.65 103.81
  A 0.22 0.22 0.0 0 0 403.43 104.03
  Z"
/>
</svg>
